# xmcd
#
# Track frame offsets:
#	150
#	57622
#	82411
#	84910
#	110824
#	143491
#	178850
#	228242
#	248674
#	279218
#
# Disc length: 4254 seconds
#
# Revision: 0
# Processed by: cddbd v1.5.2PL0 Copyright (c) Steve Scherf et al.
# Submitted via: dBpowerAMP V4.0
#
DISCID=86109c0a
DTITLE=Life Like Liquid - Life Like Liquid - Disc 1
DYEAR=1900
DGENRE=Roots
TTITLE0=Golden Orb Weaver
TTITLE1=Sound of the Sunshine (LLL Version)
TTITLE2=Hangsolow
TTITLE3=Happiness
TTITLE4=The Fold
TTITLE5=The Tarkine
TTITLE6=Spoon Bender
TTITLE7=Pirate Station
TTITLE8=Tail Dragger
TTITLE9=Raul the Catfish
EXTD=
EXTT0=
EXTT1=
EXTT2=
EXTT3=
EXTT4=
EXTT5=
EXTT6=
EXTT7=
EXTT8=
EXTT9=
PLAYORDER=
